<?xml version="1.0" ?>
<!-- Uploaded to: SVG Repo, www.svgrepo.com, Generator: SVG Repo Mixer Tools -->
<svg width="800px" height="800px" viewBox="0 0 64 64" xmlns="http://www.w3.org/2000/svg">
<defs>
<style>.cls-1{fill:none;stroke:#000000;stroke-linejoin:round;stroke-width:2px;}</style>
</defs>
<title/>
<g data-name="Layer 13" id="Layer_13">
<polyline class="cls-1" points="32 32 32 14 10 14 10 62 28 62"/>
<polyline class="cls-1" points="32 14 26 8 6 8 10 14"/>
<polyline class="cls-1" points="6 8 2 14 2 62 10 62"/>
<polyline class="cls-1" points="26 8 26 2 6 2 6 8"/>
<polyline class="cls-1" points="28 50 14 50 14 26 28 26 28 29"/>
<line class="cls-1" x1="32" x2="10" y1="22" y2="22"/>
<line class="cls-1" x1="28" x2="10" y1="54" y2="54"/>
<rect class="cls-1" height="30" width="18" x="28" y="32"/>
<line class="cls-1" x1="28" x2="46" y1="58" y2="58"/>
<line class="cls-1" x1="28" x2="46" y1="38" y2="38"/>
<polyline class="cls-1" points="40 32 40 22 44 22 44 32"/>
<path class="cls-1" d="M46,62H60a2,2,0,0,0,2-2h0a2,2,0,0,0-2-2H54a2,2,0,0,1-2-2h0a2,2,0,0,1,2-2h2a2,2,0,0,0,2-2h0a2,2,0,0,0-2-2H46"/>
</g>
</svg>